<?xml version="1.0" encoding="UTF-8" standalone="no"?>
<!-- Created with Inkscape (http://www.inkscape.org/) -->
<svg
   xmlns:svg="http://www.w3.org/2000/svg"
   xmlns="http://www.w3.org/2000/svg"
   version="1.0"
   width="626.09998"
   height="161.53999"
   id="svg40163">
  <defs
     id="defs40165" />
  <g
     transform="translate(-82.2595,-466.59131)"
     id="layer1">
    <g
       transform="translate(0,1.6430664e-6)"
       id="g40220">
      <path
         d="M 254.42084,534.56903 L 261.6889,534.56903 L 261.6889,538.14813 L 261.79083,538.14813 C 262.7973,536.08628 265.26804,533.91832 268.95029,533.91832 C 272.38533,533.91832 275.20758,535.43694 276.51863,538.63885 C 278.28375,535.27452 280.65438,533.91832 284.28599,533.91832 C 290.94488,533.91832 292.95969,538.95859 292.95969,545.35753 L 292.95969,560.9227 L 285.39803,560.9227 L 285.39803,545.57854 C 285.39803,543.14073 284.53863,541.07408 282.06429,541.07408 C 278.58164,541.07408 277.47563,543.73773 277.47563,546.9835 L 277.47563,560.9227 L 269.90973,560.9227 L 269.90973,546.9835 C 269.90973,545.03648 270.00983,541.07408 266.52718,541.07408 C 262.60199,541.07408 261.99103,544.3834 261.99103,547.7977 L 261.99103,560.9227 L 254.42084,560.9227 L 254.42084,534.56903 z"
         id="path2817"
         style="fill:#000000;fill-opacity:1;fill-rule:nonzero;stroke:none" />
      <path
         d="M 323.93073,560.9227 L 316.67488,560.9227 L 316.67488,557.34605 L 316.56747,557.34605 C 315.55917,559.40904 313.08358,561.577 309.40863,561.577 C 301.73895,561.577 300.32294,556.1522 300.32294,549.10264 L 300.32294,534.56903 L 307.89069,534.56903 L 307.89069,547.473 C 307.89069,550.51012 307.93953,554.41514 311.82745,554.41514 C 315.75814,554.41514 316.36359,551.10825 316.36359,547.68663 L 316.36359,534.56903 L 323.93073,534.56903 L 323.93073,560.9227 z"
         id="path2819"
         style="fill:#000000;fill-opacity:1;fill-rule:nonzero;stroke:none" />
      <path
         d="M 345.16243,542.32529 C 344.05343,540.86053 342.59346,540.09873 340.78438,540.09873 C 339.51729,540.09873 337.99927,540.70062 337.99927,542.27159 C 337.99927,546.17295 350.76729,542.86729 350.76729,552.90024 C 350.76729,559.62022 344.71626,561.577 339.46846,561.577 C 336.03463,561.577 332.25653,560.64927 329.83038,557.9979 L 334.41964,552.51939 C 335.83563,554.36265 337.50433,555.3978 339.76998,555.3978 C 341.48384,555.3978 343.19893,554.90457 343.19893,553.49595 C 343.19893,549.26133 330.44073,552.84409 330.44073,542.81358 C 330.44073,536.62713 335.58173,533.91832 340.72823,533.91832 C 343.95638,533.91832 347.53731,534.78623 349.80599,537.38999 L 345.16243,542.32529 z"
         id="path2821"
         style="fill:#000000;fill-opacity:1;fill-rule:nonzero;stroke:none" />
      <path
         d="M 373.46504,544.7667 C 373.51388,542.05308 371.54361,539.77769 368.82393,539.77769 C 365.49447,539.77769 363.67802,542.21795 363.47722,544.7667 L 373.46504,544.7667 z M 368.52112,522.53159 L 378.80684,522.53159 L 370.08121,530.33922 L 363.42903,530.33922 L 368.52112,522.53159 z M 379.87129,556.36949 C 377.45122,559.67393 373.46504,561.577 369.53133,561.577 C 361.96601,561.577 355.90828,556.1522 355.90828,547.74888 C 355.90828,539.33824 361.96601,533.91832 369.53133,533.91832 C 376.58883,533.91832 381.02851,539.33824 381.02851,547.74888 L 381.02851,550.29527 L 363.47722,550.29527 C 364.08211,553.38494 366.25558,555.3978 369.17549,555.3978 C 371.64559,555.3978 373.31611,554.03794 374.57344,552.19468 L 379.87129,556.36949 z"
         id="path2823"
         style="fill:#000000;fill-opacity:1;fill-rule:nonzero;stroke:none" />
      <path
         d="M 404.43489,544.7667 C 404.48371,542.05308 402.51839,539.77769 399.79192,539.77769 C 396.46309,539.77769 394.65031,542.21795 394.44402,544.7667 L 404.43489,544.7667 z M 410.83867,556.36949 C 408.41927,559.67393 404.43489,561.577 400.49927,561.577 C 392.93462,561.577 386.87813,556.1522 386.87813,547.74888 C 386.87813,539.33824 392.93462,533.91832 400.49927,533.91832 C 407.55562,533.91832 411.99898,539.33824 411.99898,547.74888 L 411.99898,550.29527 L 394.44402,550.29527 C 395.04952,553.38494 397.22236,555.3978 400.14534,555.3978 C 402.61849,555.3978 404.28418,554.03794 405.54082,552.19468 L 410.83867,556.36949 z"
         id="path2825"
         style="fill:#000000;fill-opacity:1;fill-rule:nonzero;stroke:none" />
      <path
         d="M 448.26729,541.07408 C 444.48128,541.07408 442.21322,543.78892 442.21322,547.74888 C 442.21322,551.7064 444.48128,554.41514 448.26729,554.41514 C 452.05212,554.41514 454.31221,551.7064 454.31221,547.74888 C 454.31221,543.78892 452.05212,541.07408 448.26729,541.07408 z M 461.27694,560.9227 L 454.31221,560.9227 L 454.31221,557.45103 L 454.21513,557.45103 C 453.05794,559.35288 450.12581,561.577 446.70479,561.577 C 439.43734,561.577 434.64722,555.93735 434.64722,547.95884 C 434.64722,540.64073 438.88558,533.91832 445.84053,533.91832 C 448.97103,533.91832 451.89339,534.83514 453.61214,537.38999 L 453.70858,537.38999 L 453.70858,519.92784 L 461.27694,519.92784 L 461.27694,560.9227 z"
         id="path2827"
         style="fill:#000000;fill-opacity:1;fill-rule:nonzero;stroke:none" />
      <path
         d="M 486.14197,544.7667 C 486.19331,542.05308 484.22612,539.77769 481.49971,539.77769 C 478.17574,539.77769 476.36422,542.21795 476.15918,544.7667 L 486.14197,544.7667 z M 492.54822,556.36949 C 490.12642,559.67393 486.14197,561.577 482.21138,561.577 C 474.64303,561.577 468.59078,556.1522 468.59078,547.74888 C 468.59078,539.33824 474.64303,533.91832 482.21138,533.91832 C 489.27433,533.91832 493.71224,539.33824 493.71224,547.74888 L 493.71224,550.29527 L 476.15918,550.29527 C 476.76457,553.38494 478.93258,555.3978 481.85611,555.3978 C 484.33053,555.3978 485.99312,554.03794 487.25036,552.19468 L 492.54822,556.36949 z"
         id="path2829"
         style="fill:#000000;fill-opacity:1;fill-rule:nonzero;stroke:none" />
      <path
         d="M 518.52851,522.53159 L 542.48177,522.53159 L 542.48177,530.33922 L 526.39592,530.33922 L 526.39592,538.14813 L 541.26713,538.14813 L 541.26713,545.95933 L 526.39592,545.95933 L 526.39592,560.9227 L 518.52851,560.9227 L 518.52851,522.53159 z"
         id="path2831"
         style="fill:#000000;fill-opacity:1;fill-rule:nonzero;stroke:none" />
      <path
         d="M 549.19682,534.56903 L 556.76033,534.56903 L 556.76033,538.80113 L 556.85853,538.80113 C 558.47413,535.60174 560.58903,533.91832 563.92277,533.91832 C 564.77727,533.91832 565.73487,533.9708 566.44234,534.19053 L 566.44234,541.61614 C 565.37907,541.29503 564.32133,541.07408 563.21053,541.07408 C 557.45919,541.07408 556.76033,544.65928 556.76033,549.91929 L 556.76033,560.9227 L 549.19682,560.9227 L 549.19682,534.56903 z"
         id="path2833"
         style="fill:#000000;fill-opacity:1;fill-rule:nonzero;stroke:none" />
      <path
         d="M 584.54472,549.37242 C 582.22542,549.37242 577.08504,549.5897 577.08504,553.17124 C 577.08504,555.12193 578.99293,556.04478 580.66658,556.04478 C 583.63533,556.04478 586.41122,554.36265 586.41122,551.10825 L 586.41122,549.37242 L 584.54472,549.37242 z M 586.41122,557.62193 L 586.32027,557.62193 C 584.65333,560.43694 581.62293,561.577 578.54012,561.577 C 573.95699,561.577 569.81758,558.7523 569.81758,553.44468 C 569.81758,544.32969 580.10498,544.16612 586.41122,544.16612 C 586.41122,541.29503 584.19442,539.44932 581.57418,539.44932 C 579.09913,539.44932 577.02523,540.64073 575.41329,542.5914 L 571.38677,538.14813 C 574.15772,535.32578 578.18734,533.91832 582.17538,533.91832 C 591.00472,533.91832 593.37288,538.74383 593.37288,547.53038 L 593.37288,560.9227 L 586.41122,560.9227 L 586.41122,557.62193 z"
         id="path2835"
         style="fill:#000000;fill-opacity:1;fill-rule:nonzero;stroke:none" />
      <path
         d="M 601.31234,534.56903 L 608.57972,534.56903 L 608.57972,538.14813 L 608.68287,538.14813 C 609.68453,536.08628 612.15703,533.91832 615.84172,533.91832 C 623.51196,533.91832 624.91821,539.33824 624.91821,546.38902 L 624.91821,560.9227 L 617.35047,560.9227 L 617.35047,548.02109 C 617.35047,544.97788 617.30172,541.07408 613.41861,541.07408 C 609.48433,541.07408 608.88314,544.3834 608.88314,547.7977 L 608.88314,560.9227 L 601.31234,560.9227 L 601.31234,534.56903 z"
         id="path2837"
         style="fill:#000000;fill-opacity:1;fill-rule:nonzero;stroke:none" />
      <path
         d="M 648.63839,543.08213 C 647.88581,541.94322 646.47217,541.07408 644.91219,541.07408 C 641.12797,541.07408 638.85262,543.78892 638.85262,547.74888 C 638.85262,551.7064 641.12797,554.41514 644.91219,554.41514 C 646.57479,554.41514 647.78382,553.49595 648.63839,552.4083 L 653.63533,558.04925 C 651.26473,560.64927 647.78382,561.577 644.91219,561.577 C 637.34383,561.577 631.28907,556.1522 631.28907,547.74888 C 631.28907,539.33824 637.34383,533.91832 644.91219,533.91832 C 647.78382,533.91832 651.26473,534.83514 653.63533,537.44744 L 648.63839,543.08213 z"
         id="path2839"
         style="fill:#000000;fill-opacity:1;fill-rule:nonzero;stroke:none" />
      <path
         d="M 675.16735,544.7667 C 675.22411,542.05308 673.25695,539.77769 670.53349,539.77769 C 667.20654,539.77769 665.39074,542.21795 665.18559,544.7667 L 675.16735,544.7667 z M 681.58031,556.36949 C 679.15783,559.67393 675.16735,561.577 671.23792,561.577 C 663.67688,561.577 657.61483,556.1522 657.61483,547.74888 C 657.61483,539.33824 663.67688,533.91832 671.23792,533.91832 C 678.30334,533.91832 682.73999,539.33824 682.73999,547.74888 L 682.73999,550.29527 L 665.18559,550.29527 C 665.79845,553.38494 667.96154,555.3978 670.88024,555.3978 C 673.35949,555.3978 675.02209,554.03794 676.28369,552.19468 L 681.58031,556.36949 z"
         id="path2841"
         style="fill:#000000;fill-opacity:1;fill-rule:nonzero;stroke:none" />
      <path
         d="M 228.8056,613.13218 L 97.25899,613.13218 L 97.25899,481.59043 L 228.8056,481.59043 L 228.8056,613.13218 z"
         id="path2843"
         style="fill:#000000;fill-opacity:1;fill-rule:nonzero;stroke:none" />
      <path
         d="M 173.13118,533.79014 C 170.01595,533.79014 167.73812,535.37224 166.1805,538.32383 C 165.19173,535.52842 162.8553,533.79014 159.53743,533.79014 C 156.26839,533.79014 153.8813,535.42344 152.42623,538.32383 L 152.16439,534.31504 L 145.00435,534.31504 C 145.10871,536.16204 145.15999,538.05772 145.15999,539.90594 L 145.15999,560.9227 L 152.99752,560.9227 L 152.99752,544.32969 C 152.99752,542.32529 153.8813,539.69354 156.16097,539.69354 C 158.60238,539.69354 159.01314,541.90659 159.01314,543.90489 L 159.01314,560.9227 L 166.75118,560.9227 L 166.75118,544.32969 C 166.75118,542.32529 167.73812,539.69354 169.972,539.69354 C 172.40364,539.69354 172.82357,541.90659 172.82357,543.90489 L 172.82357,560.9227 L 180.60922,560.9227 L 180.60922,543.22503 C 180.60922,538.004 178.53339,533.79014 173.13118,533.79014 z"
         id="path2845"
         style="fill:#ffffff;fill-opacity:1;fill-rule:nonzero;stroke:none" />
      <path
         d="M 145.55305,508.10777 L 145.55305,514.30413 L 180.68368,514.30413 L 180.68368,508.10777 L 145.55305,508.10777 z"
         id="path2847"
         style="fill:#ffffff;fill-opacity:1;fill-rule:nonzero;stroke:none" />
      <path
         d="M 145.55305,580.58092 L 145.55305,586.77842 L 180.68368,586.77842 L 180.68368,580.58092 L 145.55305,580.58092 z"
         id="path2849"
         style="fill:#ffffff;fill-opacity:1;fill-rule:nonzero;stroke:none" />
      <path
         d="M 207.04293,508.10777 L 198.25873,508.10777 L 198.25873,514.30413 C 198.25873,514.30413 201.34466,514.30413 203.9399,514.30413 C 203.9399,518.95135 203.9399,534.26385 203.9399,534.26385 L 210.13495,534.26385 L 210.13495,508.10777 L 207.04293,508.10777 z"
         id="path2851"
         style="fill:#ffffff;fill-opacity:1;fill-rule:nonzero;stroke:none" />
      <path
         d="M 116.09444,560.62242 L 116.09444,586.77842 L 127.9792,586.77842 L 127.9792,580.58092 C 127.9792,580.58092 124.88839,580.58092 122.28829,580.58092 C 122.28829,575.9398 122.28829,560.62242 122.28829,560.62242 L 116.09444,560.62242 z"
         id="path2853"
         style="fill:#ffffff;fill-opacity:1;fill-rule:nonzero;stroke:none" />
      <path
         d="M 203.9399,544.14903 L 203.9399,550.73228 L 210.13495,550.73228 L 210.13495,544.14903 L 203.9399,544.14903 z"
         id="path2855"
         style="fill:#ffffff;fill-opacity:1;fill-rule:nonzero;stroke:none" />
      <path
         d="M 116.09444,544.14903 L 116.09444,550.73228 L 122.28829,550.73228 L 122.28829,544.14903 L 116.09444,544.14903 z"
         id="path2857"
         style="fill:#ffffff;fill-opacity:1;fill-rule:nonzero;stroke:none" />
      <path
         d="M 203.9399,560.62242 C 203.9399,560.62242 203.9399,575.9398 203.9399,580.58092 C 201.34466,580.58092 198.25873,580.58092 198.25873,580.58092 L 198.25873,586.77842 L 210.13495,586.77842 L 210.13495,560.62242 L 203.9399,560.62242 z"
         id="path2859"
         style="fill:#ffffff;fill-opacity:1;fill-rule:nonzero;stroke:none" />
      <path
         d="M 119.19685,508.10777 L 116.09444,508.10777 L 116.09444,534.26385 L 122.28829,534.26385 C 122.28829,534.26385 122.28829,518.95135 122.28829,514.30413 C 124.88839,514.30413 127.9792,514.30413 127.9792,514.30413 L 127.9792,508.10777 L 119.19685,508.10777 z"
         id="path2861"
         style="fill:#ffffff;fill-opacity:1;fill-rule:nonzero;stroke:none" />
    </g>
  </g>
</svg>
