<?xml version="1.0" encoding="UTF-8" standalone="no"?>
<svg
   xmlns:dc="http://purl.org/dc/elements/1.1/"
   xmlns:cc="http://creativecommons.org/ns#"
   xmlns:rdf="http://www.w3.org/1999/02/22-rdf-syntax-ns#"
   xmlns:svg="http://www.w3.org/2000/svg"
   xmlns="http://www.w3.org/2000/svg"
   xmlns:sodipodi="http://sodipodi.sourceforge.net/DTD/sodipodi-0.dtd"
   xmlns:inkscape="http://www.inkscape.org/namespaces/inkscape"
   width="43"
   height="43"
   id="svg3405"
   version="1.1"
   inkscape:version="0.91 r13725"
   sodipodi:docname="company.svg">
  <metadata
     id="metadata3416">
    <rdf:RDF>
      <cc:Work
         rdf:about="">
        <dc:format>image/svg+xml</dc:format>
        <dc:type
           rdf:resource="http://purl.org/dc/dcmitype/StillImage" />
      </cc:Work>
    </rdf:RDF>
  </metadata>
  <defs
     id="defs3414" />
  <sodipodi:namedview
     pagecolor="#ffffff"
     bordercolor="#666666"
     borderopacity="1"
     objecttolerance="10"
     gridtolerance="10"
     guidetolerance="10"
     inkscape:pageopacity="0"
     inkscape:pageshadow="2"
     inkscape:window-width="640"
     inkscape:window-height="480"
     id="namedview3412"
     showgrid="false"
     inkscape:zoom="7.7617302"
     inkscape:cx="15.057756"
     inkscape:cy="0.085547534"
     inkscape:current-layer="svg3405" />
  <path
     inkscape:connector-curvature="0"
     style="fill:#704f97;fill-opacity:1;fill-rule:nonzero;stroke:#c8cacd;stroke-opacity:1"
     id="path2843"
     d="m 36.165254,36.164712 -29.3305078,0 0,-29.3294242 29.3305078,0 0,29.3294242 z" />
  <path
     inkscape:connector-curvature="0"
     style="fill:#ffffff;fill-opacity:1;fill-rule:nonzero;stroke:none"
     id="path2845"
     d="m 23.751715,18.474083 c -0.694592,0 -1.202473,0.352755 -1.54977,1.010861 -0.220463,-0.623283 -0.741409,-1.010861 -1.481183,-1.010861 -0.728887,0 -1.261129,0.364171 -1.585561,1.010861 l -0.05838,-0.893826 -1.59645,0 c 0.02327,0.411819 0.0347,0.834493 0.0347,1.246584 l 0,4.686037 1.747508,0 0,-3.699688 c 0,-0.446915 0.197053,-1.033707 0.705344,-1.033707 0.544353,0 0.635939,0.493436 0.635939,0.93899 l 0,3.794405 1.725325,0 0,-3.699688 c 0,-0.446915 0.220054,-1.033707 0.718135,-1.033707 0.542175,0 0.635805,0.493436 0.635805,0.93899 l 0,3.794405 1.735941,0 0,-3.945991 c 0,-1.164115 -0.462842,-2.103665 -1.667354,-2.103665 z" />
  <path
     inkscape:connector-curvature="0"
     style="fill:#ffffff;fill-opacity:1;fill-rule:nonzero;stroke:none"
     id="path2847"
     d="m 17.602711,12.74777 0,1.381582 7.83296,0 0,-1.381582 -7.83296,0 z" />
  <path
     inkscape:connector-curvature="0"
     style="fill:#ffffff;fill-opacity:1;fill-rule:nonzero;stroke:none"
     id="path2849"
     d="m 17.602711,28.906867 0,1.381836 7.83296,0 0,-1.381836 -7.83296,0 z" />
  <path
     inkscape:connector-curvature="0"
     style="fill:#ffffff;fill-opacity:1;fill-rule:nonzero;stroke:none"
     id="path2851"
     d="m 31.312904,12.74777 -1.958583,0 0,1.381582 c 0,0 0.68806,0 1.266711,0 0,1.036175 0,4.450352 0,4.450352 l 1.38129,0 0,-5.831934 -0.689418,0 z" />
  <path
     inkscape:connector-curvature="0"
     style="fill:#ffffff;fill-opacity:1;fill-rule:nonzero;stroke:none"
     id="path2853"
     d="m 11.034423,24.456786 0,5.831917 2.649906,0 0,-1.381836 c 0,0 -0.689148,0 -1.268883,0 0,-1.034815 0,-4.450081 0,-4.450081 l -1.381023,0 z" />
  <path
     inkscape:connector-curvature="0"
     style="fill:#ffffff;fill-opacity:1;fill-rule:nonzero;stroke:none"
     id="path2855"
     d="m 30.621032,20.78377 0,1.467845 1.38129,0 0,-1.467845 -1.38129,0 z" />
  <path
     inkscape:connector-curvature="0"
     style="fill:#ffffff;fill-opacity:1;fill-rule:nonzero;stroke:none"
     id="path2857"
     d="m 11.034423,20.78377 0,1.467845 1.381023,0 0,-1.467845 -1.381023,0 z" />
  <path
     inkscape:connector-curvature="0"
     style="fill:#ffffff;fill-opacity:1;fill-rule:nonzero;stroke:none"
     id="path2859"
     d="m 30.621032,24.456786 c 0,0 0,3.415266 0,4.450081 -0.578651,0 -1.266711,0 -1.266711,0 l 0,1.381836 2.648001,0 0,-5.831917 -1.38129,0 z" />
  <path
     inkscape:connector-curvature="0"
     style="fill:#ffffff;fill-opacity:1;fill-rule:nonzero;stroke:none"
     id="path2861"
     d="m 11.726157,12.74777 -0.691734,0 0,5.831934 1.381023,0 c 0,0 0,-3.414177 0,-4.450352 0.579735,0 1.268883,0 1.268883,0 l 0,-1.381582 -1.958172,0 z" />
</svg>
